<svg width="15" height="16" viewBox="0 0 15 16" fill="none" xmlns="http://www.w3.org/2000/svg">
<path d="M13.0909 1.45455H12.3636V0.727273C12.3636 0.327273 12.0364 0 11.6364 0C11.2364 0 10.9091 0.327273 10.9091 0.727273V1.45455H3.63636V0.727273C3.63636 0.327273 3.30909 0 2.90909 0C2.50909 0 2.18182 0.327273 2.18182 0.727273V1.45455H1.45455C0.654545 1.45455 0 2.10909 0 2.90909V14.5455C0 15.3455 0.654545 16 1.45455 16H13.0909C13.8909 16 14.5455 15.3455 14.5455 14.5455V2.90909C14.5455 2.10909 13.8909 1.45455 13.0909 1.45455ZM12.3636 14.5455H2.18182C1.78182 14.5455 1.45455 14.2182 1.45455 13.8182V5.09091H13.0909V13.8182C13.0909 14.2182 12.7636 14.5455 12.3636 14.5455Z" fill="#1B2234"/>
</svg>
